<svg enable-background="new 0 0 283.46 283.46" viewBox="0 0 283.46 283.46" xmlns="http://www.w3.org/2000/svg"><g fill="none" stroke="#000" stroke-miterlimit="10"><path d="m11.91 8.16c4.4 86.81-2.5 173.93 2.64 260.71"/><path d="m20.66 270.73h32.37"/><path d="m58.91 270.72c3.2-86.92.77-174.05-7.27-260.65"/><path d="m58.35 10.47c11.53-.16 23.06.01 34.58.53"/><path d="m99.46 10.83c-.77 7.14-.97 14.33-1.12 21.51-1.54 78.27 4.97 156.74-1.42 234.76"/><path d="m103.13 269.08c9.13.39 18.26.78 27.39 1.18.21.01.47-.01.55-.2s-.3-.37-.31-.16"/><path d="m136.86 270.76c5.46-21.93 1.71-44.92-.37-67.42-5.89-63.58 1.78-127.76-2.92-191.43"/><path d="m141.26 11.36c10.35.18 20.69.35 31.04.53"/><path d="m178.94 11.34c3.19 86.12 3.27 172.36.25 258.49"/><path d="m187.38 271.21c8.72 0 17.44-.19 26.16-.58"/><path d="m220.58 268.99c5.48-83.39 5.82-167.11 1-250.54"/><path d="m229.05 16.92c11.24.13 22.48-.1 33.7-.67"/><path d="m272.96 16.67c-.53 84.83-1.07 169.67-1.6 254.5"/></g></svg>