<?xml version="1.0" encoding="utf-8"?>
<!-- Generator: Adobe Illustrator 24.0.1, SVG Export Plug-In . SVG Version: 6.00 Build 0)  -->
<svg version="1.1" id="Layer_1" xmlns="http://www.w3.org/2000/svg" xmlns:xlink="http://www.w3.org/1999/xlink" x="0px" y="0px"
	 viewBox="0 0 396.72 182.64" style="enable-background:new 0 0 396.72 182.64;" xml:space="preserve">
<g>
	<g>
		<path d="M115.34,28.35v22.88H55.55v28.59h51.82v21.14H55.55v51.12H28.35V28.35H115.34z"/>
	</g>
	<g>
		<path d="M113.61,90.04c0.35-5.78,1.79-10.57,4.33-14.38c2.54-3.81,5.78-6.87,9.7-9.18c3.93-2.31,8.35-3.96,13.26-4.94
			c4.91-0.98,9.85-1.47,14.82-1.47c4.51,0,9.07,0.32,13.69,0.95c4.62,0.64,8.84,1.88,12.65,3.73c3.81,1.85,6.93,4.42,9.36,7.71
			c2.43,3.29,3.64,7.65,3.64,13.08v46.62c0,4.05,0.23,7.91,0.69,11.61c0.46,3.7,1.27,6.47,2.43,8.32h-24.95
			c-0.46-1.39-0.84-2.8-1.13-4.25c-0.29-1.44-0.49-2.92-0.61-4.42c-3.93,4.05-8.55,6.87-13.86,8.49
			c-5.32,1.62-10.74,2.43-16.29,2.43c-4.27,0-8.26-0.52-11.96-1.56c-3.7-1.04-6.93-2.66-9.7-4.85c-2.77-2.19-4.94-4.97-6.5-8.32
			c-1.56-3.35-2.34-7.34-2.34-11.96c0-5.08,0.89-9.27,2.69-12.56c1.79-3.29,4.1-5.92,6.93-7.89c2.83-1.96,6.07-3.44,9.7-4.42
			c3.64-0.98,7.31-1.76,11-2.34c3.7-0.58,7.34-1.04,10.92-1.39c3.58-0.35,6.76-0.87,9.53-1.56s4.97-1.7,6.58-3.03
			c1.62-1.33,2.37-3.26,2.25-5.8c0-2.66-0.43-4.77-1.3-6.33s-2.02-2.77-3.47-3.64c-1.45-0.87-3.12-1.44-5.03-1.73
			c-1.91-0.29-3.96-0.43-6.15-0.43c-4.85,0-8.67,1.04-11.44,3.12s-4.39,5.55-4.85,10.4H113.61z M170.45,108.23
			c-1.04,0.93-2.34,1.65-3.9,2.17c-1.56,0.52-3.24,0.95-5.03,1.3c-1.79,0.35-3.67,0.64-5.63,0.87c-1.97,0.23-3.93,0.52-5.89,0.87
			c-1.85,0.35-3.67,0.81-5.46,1.39c-1.79,0.58-3.35,1.36-4.68,2.34c-1.33,0.98-2.4,2.23-3.21,3.73c-0.81,1.5-1.21,3.41-1.21,5.72
			c0,2.2,0.4,4.05,1.21,5.55c0.81,1.5,1.91,2.69,3.29,3.55s3,1.47,4.85,1.82c1.85,0.35,3.75,0.52,5.72,0.52
			c4.85,0,8.6-0.81,11.26-2.43c2.66-1.62,4.62-3.55,5.89-5.8c1.27-2.25,2.05-4.53,2.34-6.85c0.29-2.31,0.43-4.16,0.43-5.55V108.23z"
			/>
	</g>
	<g>
		<path d="M225.9,152.08l-30.67-89.59h25.82l18.89,61.17h0.35l18.89-61.17h24.43l-30.33,89.59H225.9z"/>
	</g>
	<g>
		<path d="M309.78,130.59c3.7,3.58,9.01,5.37,15.94,5.37c4.97,0,9.24-1.24,12.82-3.73c3.58-2.48,5.78-5.11,6.59-7.89h21.66
			c-3.47,10.74-8.78,18.43-15.94,23.05c-7.17,4.62-15.83,6.93-25.99,6.93c-7.05,0-13.4-1.13-19.06-3.38
			c-5.66-2.25-10.46-5.46-14.38-9.62c-3.93-4.16-6.96-9.13-9.1-14.9c-2.14-5.78-3.21-12.13-3.21-19.06c0-6.7,1.1-12.94,3.29-18.72
			c2.19-5.78,5.31-10.77,9.36-14.99c4.04-4.22,8.86-7.54,14.47-9.96c5.6-2.43,11.81-3.64,18.63-3.64c7.62,0,14.27,1.47,19.93,4.42
			c5.66,2.95,10.31,6.9,13.95,11.87c3.64,4.97,6.27,10.63,7.88,16.98c1.62,6.36,2.19,13,1.73,19.93h-64.64
			C304.06,121.23,306.08,127.01,309.78,130.59z M337.59,83.45c-2.95-3.23-7.42-4.85-13.43-4.85c-3.93,0-7.19,0.67-9.79,1.99
			c-2.6,1.33-4.68,2.98-6.24,4.94c-1.56,1.97-2.66,4.05-3.29,6.24c-0.64,2.2-1.01,4.16-1.13,5.89h40.03
			C342.59,91.43,340.54,86.69,337.59,83.45z"/>
	</g>
</g>
</svg>
